<?xml version="1.0" encoding="UTF-8" standalone="no"?>
<!-- Created with Inkscape (http://www.inkscape.org/) -->
<svg
   xmlns:dc="http://purl.org/dc/elements/1.1/"
   xmlns:cc="http://web.resource.org/cc/"
   xmlns:rdf="http://www.w3.org/1999/02/22-rdf-syntax-ns#"
   xmlns:svg="http://www.w3.org/2000/svg"
   xmlns="http://www.w3.org/2000/svg"
   xmlns:sodipodi="http://sodipodi.sourceforge.net/DTD/sodipodi-0.dtd"
   xmlns:inkscape="http://www.inkscape.org/namespaces/inkscape"
   width="744.09448819"
   height="1052.3622047"
   id="svg7613"
   sodipodi:version="0.32"
   inkscape:version="0.44"
   sodipodi:docbase="/home/jourdren"
   sodipodi:docname="corsen-icon.svg">
  <defs
     id="defs7615" />
  <sodipodi:namedview
     id="base"
     pagecolor="#ffffff"
     bordercolor="#666666"
     borderopacity="1.0"
     gridtolerance="10000"
     guidetolerance="10"
     objecttolerance="10"
     inkscape:pageopacity="0.0"
     inkscape:pageshadow="2"
     inkscape:zoom="0.98994949"
     inkscape:cx="339.9935"
     inkscape:cy="560.4061"
     inkscape:document-units="px"
     inkscape:current-layer="layer1"
     inkscape:window-width="849"
     inkscape:window-height="579"
     inkscape:window-x="109"
     inkscape:window-y="225" />
  <metadata
     id="metadata7618">
    <rdf:RDF>
      <cc:Work
         rdf:about="">
        <dc:format>image/svg+xml</dc:format>
        <dc:type
           rdf:resource="http://purl.org/dc/dcmitype/StillImage" />
      </cc:Work>
    </rdf:RDF>
  </metadata>
  <g
     inkscape:label="Layer 1"
     inkscape:groupmode="layer"
     id="layer1">
    <rect
       style="opacity:0.46464646;fill:#e6e6e6;fill-opacity:1;fill-rule:nonzero;stroke:#0e0e0e;stroke-width:0.7309553;stroke-linecap:round;stroke-linejoin:round;stroke-miterlimit:4;stroke-dasharray:none;stroke-opacity:1"
       id="rect6594"
       width="109.26904"
       height="109.26904"
       x="282.50833"
       y="426.29907" />
    <path
       style="opacity:1;fill:#ff2a2a;fill-opacity:1;fill-rule:nonzero;stroke:#0e0e0e;stroke-width:2;stroke-linecap:round;stroke-linejoin:round;stroke-miterlimit:4;stroke-dasharray:none;stroke-opacity:1"
       id="path6640"
       d="M 369.63603,434.6146 C 371.84789,440.49996 373.16877,446.62379 374.23064,452.80333 C 375.57805,462.5119 376.11742,472.31111 375.73785,482.10175 C 375.52587,489.79875 374.22708,497.37687 372.30936,504.81509 C 371.06207,509.59044 369.21559,514.15991 366.62369,518.35728 C 365.92514,519.46482 365.06681,520.45058 364.25511,521.4712 L 357.47191,524.32473 C 358.34985,523.3188 359.28277,522.35843 360.04302,521.25129 C 362.78436,517.11387 364.76468,512.56725 366.09495,507.78158 C 368.11049,500.3563 369.51719,492.79095 369.82358,485.08284 C 370.29544,475.34038 369.84782,465.57089 368.37126,455.92053 C 367.24982,449.8786 365.90714,443.84865 363.14904,438.30818 L 369.63603,434.6146 z " />
    <path
       style="opacity:1;fill:#ff2a2a;fill-opacity:1;fill-rule:nonzero;stroke:#0e0e0e;stroke-width:2;stroke-linecap:round;stroke-linejoin:round;stroke-miterlimit:4;stroke-dasharray:none;stroke-opacity:1"
       id="path6642"
       d="M 315.88367,432.6357 C 314.19623,434.12172 312.97219,435.99612 311.75584,437.86459 C 308.6842,442.79875 305.99606,447.96504 303.79187,453.34093 C 301.4047,459.8648 300.4046,466.71453 299.81973,473.59906 C 299.35395,479.99714 300.74458,486.23503 302.39078,492.3658 C 303.95342,497.7567 305.88547,503.03836 307.85527,508.29266 C 309.17512,511.79293 311.03541,515.01886 313.0278,518.16435 C 313.64727,519.04347 314.39555,519.81219 315.10225,520.61568 L 308.77951,524.44555 C 308.09011,523.58698 307.36473,522.75616 306.75147,521.83722 C 304.7933,518.60661 302.98184,515.28368 301.67174,511.72442 C 299.73847,506.4248 297.91074,501.07865 296.30692,495.67031 C 294.62713,489.46602 293.19847,483.15193 293.65933,476.67218 C 294.25367,469.73581 295.2389,462.83304 297.54409,456.22832 C 299.66668,450.87566 302.26363,445.72491 305.18457,440.76172 C 306.29432,438.92008 307.36994,437.039 308.91675,435.52149 L 315.88367,432.6357 z " />
    <flowRoot
       xml:space="preserve"
       id="flowRoot7592"
       style="font-size:144px;font-style:normal;font-variant:normal;font-weight:normal;font-stretch:normal;text-align:end;line-height:125%;writing-mode:lr-tb;text-anchor:end;opacity:1;fill:#1a1a1a;font-family:Samanata"
       transform="matrix(0,-0.1875,0.1875,0,286.0934,575.7498)"><flowRegion
         id="flowRegion7594"><rect
           id="rect7596"
           width="702.85712"
           height="320"
           x="51.42857"
           y="178.07646"
           style="font-size:144px;font-style:normal;font-variant:normal;font-weight:normal;font-stretch:normal;text-align:end;line-height:125%;writing-mode:lr-tb;text-anchor:end;fill:#1a1a1a;font-family:Samanata" /></flowRegion><flowPara
         id="flowPara7598">corsen</flowPara></flowRoot>  </g>
</svg>
